HIERARCHY
ROOT Hips
{
	OFFSET 0.00 0.00 0.00
	CHANNELS 6 Xposition Yposition Zposition Xrotation Yrotation Zrotation
	JOINT Spine
	{
		OFFSET 0.00000 6.86429 0.00000
		CHANNELS 3 Xrotation Yrotation Zrotation
		JOINT Head
		{
			OFFSET 0.00000 15.39383 0.00000
			CHANNELS 3 Xrotation Yrotation Zrotation
			End Site
			{
				OFFSET 0.00000 4.52755 0.00000
			}
		}
		JOINT LeftShoulder
		{
			OFFSET 0.00000 9.31483 0.00000
			CHANNELS 3 Xrotation Yrotation Zrotation
			JOINT LeftArm
			{
				OFFSET 8.27540 0.00000 0.00000
				CHANNELS 3 Xrotation Yrotation Zrotation
				JOINT LeftForeArm
				{
					OFFSET 12.00220 0.00000 0.00000
					CHANNELS 3 Yrotation Zrotation Xrotation
					JOINT LeftHand
					{
						OFFSET 10.14463 0.00000 0.00000
						CHANNELS 3 Xrotation Yrotation Zrotation
						JOINT LeftHandThumb1
						{
							OFFSET 0.00000 0.00000 0.00000
							CHANNELS 3 Xrotation Zrotation Yrotation
							End Site
							{
								OFFSET 0.00000 0.00000 3.93700
							}
						}
						End Site
						{
							OFFSET 3.93700 0.00000 0.00000
						}
					}
				}
			}
		}
		JOINT RightShoulder
		{
			OFFSET 0.00000 9.31483 0.00000
			CHANNELS 3 Xrotation Yrotation Zrotation
			JOINT RightArm
			{
				OFFSET -8.27540 0.00000 0.00000
				CHANNELS 3 Xrotation Yrotation Zrotation
				JOINT RightForeArm
				{
					OFFSET -12.00220 0.00000 0.00000
					CHANNELS 3 Yrotation Zrotation Xrotation
					JOINT RightHand
					{
						OFFSET -10.14463 0.00000 0.00000
						CHANNELS 3 Xrotation Yrotation Zrotation
						JOINT RightHandThumb1
						{
							OFFSET 0.00000 0.00000 0.00000
							CHANNELS 3 Xrotation Zrotation Yrotation
							End Site
							{
								OFFSET 0.00000 0.00000 3.93700
							}
						}
						End Site
						{
							OFFSET -3.93700 0.00000 0.00000
						}
					}
				}
			}
		}
	}
	JOINT LeftUpLeg
	{
		OFFSET 4.11738 0.00000 0.00000
		CHANNELS 3 Xrotation Yrotation Zrotation
		JOINT LeftLeg
		{
			OFFSET 0.00000 -19.39432 0.00000
			CHANNELS 3 Xrotation Yrotation Zrotation
			JOINT LeftFoot
			{
				OFFSET 0.00000 -17.60956 0.00000
				CHANNELS 3 Xrotation Yrotation Zrotation
				JOINT LeftToeBase
				{
					OFFSET 0.00000 -1.57501 5.87804
					CHANNELS 3 Xrotation Yrotation Zrotation
					End Site
					{
						OFFSET 0.00000 0.00000 2.95275
					}
				}
			}
		}
	}
	JOINT RightUpLeg
	{
		OFFSET -4.11738 0.00000 0.00000
		CHANNELS 3 Xrotation Yrotation Zrotation
		JOINT RightLeg
		{
			OFFSET 0.00000 -19.39432 0.00000
			CHANNELS 3 Xrotation Yrotation Zrotation
			JOINT RightFoot
			{
				OFFSET 0.00000 -17.60956 0.00000
				CHANNELS 3 Xrotation Yrotation Zrotation
				JOINT RightToeBase
				{
					OFFSET 0.00000 -1.57501 5.87804
					CHANNELS 3 Xrotation Yrotation Zrotation
					End Site
					{
						OFFSET 0.00000 0.00000 2.95275
					}
				}
			}
		}
	}
}
MOTION
Frames:	21
Frame Time: 0.008333
3.2229 39.6591 -10.2782 -1.0801 -6.0301 -3.8064 14.3002 4.5875 7.6822 24.9336 26.8997 -1.8167 4.4052 5.5385 25.8314 26.6153 -38.5862 -14.5408 -85.5673 0.0000 31.0303 -0.2529 -2.1606 -6.6783 32.8623 0.0000 24.3270 15.4335 -13.8144 -9.3919 -9.5596 46.7541 67.9340 29.2603 0.0000 9.5705 -2.1178 13.9015 8.7504 33.1476 -0.0000 -26.2537 -0.2639 5.3140 1.9471 7.5929 -0.0000 -0.0000 -12.3711 25.6509 -5.2452 12.6191 -0.0000 -0.0000 0.6249 -8.1001 0.9341 5.5652 -0.0000 -0.0000 -5.3783 -8.8243 13.7867 12.4987 -0.0000 -0.0000
3.2038 39.6570 -10.2568 -1.0784 -5.9608 -3.7893 14.0077 4.7861 7.5183 24.9666 26.9344 -2.2113 3.8800 5.4421 25.8074 25.3853 -38.1633 -14.9456 -86.1962 0.0000 30.3086 -0.2292 -2.0711 -6.3163 32.8623 0.0000 24.3270 15.5382 -13.8382 -9.3919 -9.5652 46.9101 68.0804 29.2351 0.0000 9.4675 -2.1480 13.8429 8.9096 33.1476 -0.0000 -26.2537 -0.2336 5.2688 1.9575 7.5883 -0.0000 -0.0000 -12.3839 25.6230 -5.2478 12.5878 -0.0000 -0.0000 0.6766 -8.1358 0.9454 5.5589 -0.0000 -0.0000 -5.4501 -8.8522 13.7528 12.4818 -0.0000 -0.0000
3.1828 39.6553 -10.2309 -1.0882 -5.8639 -3.7785 13.7018 4.9628 7.3546 25.0212 26.9705 -2.5672 3.3878 5.3138 25.7982 24.1329 -37.7107 -15.3980 -86.7848 -0.0000 29.4462 -0.2112 -2.0462 -5.8938 32.8623 0.0000 24.3270 15.6271 -13.8400 -9.3938 -9.4742 47.0576 68.2033 29.2672 0.0000 9.3457 -2.1248 13.7306 8.8840 33.1476 -0.0000 -26.2537 -0.1880 5.2211 1.9749 7.5856 -0.0000 -0.0000 -12.4048 25.5843 -5.2766 12.5792 -0.0000 -0.0000 0.7727 -8.1846 0.9668 5.5136 -0.0000 -0.0000 -5.5177 -8.8898 13.7307 12.5198 -0.0000 -0.0000
3.1608 39.6531 -10.2063 -1.0980 -5.7705 -3.7692 13.4248 5.1283 7.1998 25.0320 27.0362 -2.9348 2.8309 5.1703 25.7834 22.7926 -37.2138 -15.9732 -87.3671 -0.0000 28.4461 -0.2272 -2.1540 -6.0220 32.8623 0.0000 24.3270 15.6385 -13.8292 -9.4681 -9.6361 46.9908 68.6094 29.1347 0.0000 9.6336 -2.2505 13.8971 9.2928 33.1476 -0.0000 -26.2537 -0.1540 5.1795 1.9962 7.6004 -0.0000 -0.0000 -12.4249 25.5417 -5.2997 12.5899 -0.0000 -0.0000 0.8628 -8.2568 0.9913 5.4738 -0.0000 -0.0000 -5.5852 -8.9263 13.7180 12.5678 -0.0000 -0.0000
3.1397 39.6514 -10.1819 -1.0992 -5.6753 -3.7528 13.1262 5.3145 7.0161 25.0504 27.0840 -3.2603 2.3740 5.0347 25.7904 21.2825 -36.7045 -16.6374 -87.9471 -0.0000 27.2527 -0.1961 -2.0003 -5.6000 32.8623 0.0000 24.3270 15.6652 -13.8592 -9.4643 -9.5163 47.2257 68.7237 29.1202 0.0000 9.5513 -2.2558 13.9564 9.2758 33.1476 -0.0000 -26.2537 -0.1301 5.1245 2.0097 7.6206 -0.0000 -0.0000 -12.4436 25.5086 -5.3332 12.6060 -0.0000 -0.0000 0.9382 -8.2938 1.0087 5.4451 -0.0000 -0.0000 -5.6446 -8.9574 13.6724 12.4898 -0.0000 -0.0000
3.1164 39.6501 -10.1565 -1.0957 -5.5553 -3.7483 12.8218 5.4615 6.8584 25.1037 27.1570 -3.6120 1.8873 4.8699 25.7476 19.8882 -36.0919 -17.2526 -88.5058 0.0000 26.3847 -0.2188 -2.2924 -5.4532 32.8623 0.0000 24.3270 15.7028 -13.8703 -9.4648 -9.4444 47.3356 68.8686 29.1372 0.0000 9.6292 -2.2245 13.8245 9.2334 33.1476 -0.0000 -26.2537 -0.1131 5.0697 2.0425 7.6430 -0.0000 -0.0000 -12.4655 25.4429 -5.3746 12.5993 -0.0000 -0.0000 1.0170 -8.3222 1.0455 5.4156 -0.0000 -0.0000 -5.7093 -9.0290 13.5994 12.4585 -0.0000 -0.0000
3.0939 39.6497 -10.1324 -1.0861 -5.4497 -3.7360 12.5245 5.6201 6.6741 25.1164 27.2032 -3.9041 1.5246 4.7609 25.7212 18.1988 -35.4763 -18.0050 -89.1153 0.0000 25.1228 -0.2047 -2.2412 -5.2203 32.8623 0.0000 24.3270 15.6995 -13.8831 -9.4819 -9.3480 47.5054 69.0349 29.1225 0.0000 9.5136 -2.2093 13.8796 9.1363 33.1476 -0.0000 -26.2537 -0.1153 4.9743 2.0592 7.6924 -0.0000 -0.0000 -12.4893 25.4555 -5.3438 12.5831 -0.0000 -0.0000 1.0708 -8.3292 1.0713 5.4114 -0.0000 -0.0000 -5.7779 -9.1129 13.5466 12.4860 -0.0000 -0.0000
3.0709 39.6480 -10.1088 -1.1031 -5.3417 -3.7339 12.2682 5.7450 6.5054 25.0998 27.2843 -4.1903 1.1386 4.6230 25.6763 16.5724 -34.7676 -18.7847 -89.7590 0.0000 23.9840 -0.1891 -2.3886 -4.5280 32.8623 0.0000 24.3270 15.6829 -13.8855 -9.5224 -9.2943 47.6652 69.2158 29.1689 -0.0000 9.6495 -2.1953 13.7063 9.1900 33.1476 -0.0000 -26.2537 -0.0784 4.9000 2.0906 7.7151 -0.0000 -0.0000 -12.5184 25.4286 -5.3980 12.6182 -0.0000 -0.0000 1.1454 -8.3536 1.1024 5.4217 -0.0000 -0.0000 -5.8548 -9.1777 13.5103 12.4964 -0.0000 -0.0000
3.0498 39.6472 -10.0832 -1.1159 -5.2424 -3.7256 12.0360 5.7934 6.3399 25.1263 27.4462 -4.6157 0.6675 4.5377 25.5935 14.9641 -33.9296 -19.5837 -90.5278 0.0000 23.1389 -0.1907 -2.3151 -4.7097 32.8623 0.0000 24.3270 15.7307 -13.8476 -9.5683 -9.3492 47.7831 69.4266 29.1920 -0.0000 9.5977 -2.1966 13.6935 9.2037 33.1476 -0.0000 -26.2537 -0.0425 4.8469 2.1114 7.7352 -0.0000 -0.0000 -12.5306 25.3921 -5.4114 12.5001 -0.0000 -0.0000 1.2110 -8.3841 1.1228 5.4419 -0.0000 -0.0000 -5.9259 -9.2234 13.4908 12.5079 -0.0000 -0.0000
3.0279 39.6459 -10.0618 -1.1547 -5.1338 -3.7238 11.8446 5.9802 6.1412 25.0369 27.4957 -4.8572 0.2982 4.3839 25.5721 13.1449 -33.1354 -20.4614 -91.2522 0.0000 22.3341 -0.1685 -2.3149 -4.1642 32.8623 0.0000 24.3270 15.7851 -13.9561 -9.5291 -9.4284 47.9433 69.6057 29.1977 -0.0000 9.7345 -2.1903 13.7090 9.1678 33.1476 -0.0000 -26.2537 0.0012 4.7773 2.1400 7.7797 -0.0000 -0.0000 -12.5520 25.3567 -5.4355 12.4851 -0.0000 -0.0000 1.2997 -8.3780 1.1536 5.4572 -0.0000 -0.0000 -6.0049 -9.3330 13.4603 12.5125 -0.0000 -0.0000
3.0045 39.6451 -10.0406 -1.1467 -5.0303 -3.7133 11.5970 6.0423 5.9547 25.0492 27.6338 -5.2295 -0.1359 4.3083 25.4632 11.5298 -32.2873 -21.1928 -92.0168 0.0000 21.8919 -0.1373 -2.2142 -3.5488 32.8623 0.0000 24.3270 15.7625 -13.9275 -9.5884 -9.4169 48.0768 69.8267 29.2406 -0.0000 9.6864 -2.1799 13.6811 9.1426 33.1476 -0.0000 -26.2537 -0.0043 4.7180 2.1668 7.8294 -0.0000 -0.0000 -12.5713 25.3301 -5.4888 12.5464 -0.0000 -0.0000 1.3283 -8.4029 1.1811 5.5012 -0.0000 -0.0000 -6.0985 -9.3977 13.3650 12.5623 -0.0000 -0.0000
2.9835 39.6436 -10.0226 -1.1911 -4.9330 -3.7203 11.4439 6.2122 5.7706 24.9456 27.6666 -5.5028 -0.5111 4.1552 25.3875 9.6406 -31.3241 -22.0990 -92.8764 0.0000 21.3045 -0.1218 -2.0696 -3.3677 32.8623 0.0000 24.3270 15.7713 -14.0058 -9.5915 -9.5317 48.0716 70.0732 29.2978 0.0000 9.7384 -2.1411 13.5910 9.0400 33.1476 -0.0000 -26.2537 0.0193 4.6991 2.2039 7.9104 -0.0000 -0.0000 -12.6136 25.2680 -5.4747 12.5341 -0.0000 -0.0000 1.4143 -8.4496 1.2178 5.5201 -0.0000 -0.0000 -6.1579 -9.4338 13.3224 12.5538 -0.0000 -0.0000
2.9598 39.6421 -9.9993 -1.2104 -4.8228 -3.7120 11.2527 6.2883 5.5578 24.8781 27.7561 -5.7642 -0.8529 4.1057 25.3236 7.7258 -30.3419 -23.0133 -93.7056 -0.0000 20.7027 -0.1066 -1.9673 -3.1014 32.8623 0.0000 24.3270 15.7118 -14.0020 -9.6277 -9.5298 48.1568 70.3188 29.3268 -0.0000 9.8190 -2.1197 13.5665 8.9665 33.1476 -0.0000 -26.2537 0.0418 4.6270 2.2289 7.9637 -0.0000 -0.0000 -12.6449 25.2473 -5.5071 12.4669 -0.0000 -0.0000 1.4890 -8.5398 1.2448 5.5343 -0.0000 -0.0000 -6.2448 -9.4350 13.2368 12.5575 -0.0000 -0.0000
2.9348 39.6409 -9.9759 -1.2179 -4.7359 -3.7098 11.0382 6.3596 5.3467 24.8409 27.8132 -6.0302 -1.2494 3.9875 25.2306 5.8819 -29.1950 -23.9238 -94.6076 0.0000 20.4426 -0.1038 -1.9334 -3.0738 32.8623 0.0000 24.3270 15.6630 -13.9964 -9.6593 -9.5328 48.2558 70.5415 29.3775 -0.0000 9.7909 -2.0640 13.5111 8.7690 33.1476 -0.0000 -26.2537 0.0428 4.6294 2.2661 8.0320 -0.0000 -0.0000 -12.6813 25.1839 -5.5206 12.4632 -0.0000 -0.0000 1.5444 -8.5417 1.2801 5.5565 -0.0000 -0.0000 -6.3077 -9.5044 13.1936 12.4912 -0.0000 -0.0000
2.9115 39.6395 -9.9528 -1.2025 -4.6556 -3.6887 10.8052 6.3796 5.1136 24.8491 27.9596 -6.3290 -1.6022 3.9404 25.1223 3.9947 -28.0196 -24.7935 -95.4957 0.0000 19.9615 -0.0918 -1.8538 -2.8356 32.8623 0.0000 24.3270 15.7108 -13.9665 -9.6738 -9.6809 48.2894 70.8155 29.3885 -0.0000 9.6718 -2.1314 13.6155 8.9842 33.1476 -0.0000 -26.2537 0.0575 4.5584 2.2799 8.0354 -0.0000 -0.0000 -12.6799 25.1745 -5.5684 12.5112 -0.0000 -0.0000 1.5653 -8.5451 1.2959 5.5915 -0.0000 -0.0000 -6.3969 -9.5801 13.1707 12.5193 -0.0000 -0.0000
2.8878 39.6384 -9.9314 -1.1779 -4.5847 -3.6699 10.5645 6.4453 4.8737 24.8527 28.0851 -6.5810 -1.9216 3.9110 25.0363 2.0179 -26.8265 -25.6987 -96.3403 -0.0000 19.7276 -0.1007 -1.8919 -3.0463 32.8623 0.0000 24.3270 15.6487 -13.9465 -9.7086 -9.7092 48.2934 71.1028 29.4380 0.0000 9.7796 -2.0222 13.4628 8.6237 33.1476 -0.0000 -26.2537 0.0499 4.4914 2.2975 8.0542 -0.0000 -0.0000 -12.7037 25.1774 -5.6194 12.3977 -0.0000 -0.0000 1.5742 -8.5418 1.3154 5.6296 -0.0000 -0.0000 -6.4915 -9.6444 13.1217 12.5691 -0.0000 -0.0000
2.8631 39.6383 -9.9091 -1.1700 -4.5270 -3.6484 10.3484 6.5445 4.6189 24.8394 28.1405 -6.8061 -2.3113 3.7939 24.9366 0.0591 -25.5353 -26.6189 -97.1982 0.0000 19.1762 -0.0918 -1.6967 -3.0975 32.8623 0.0000 24.3270 15.6088 -13.9183 -9.7458 -9.7508 48.2794 71.4001 29.4729 0.0000 9.6544 -2.0071 13.5249 8.5225 33.1476 -0.0000 -26.2537 0.0377 4.5374 2.3215 8.1251 -0.0000 -0.0000 -12.7005 25.0859 -5.6671 12.5043 -0.0000 -0.0000 1.5954 -8.5671 1.3287 5.6703 -0.0000 -0.0000 -6.5605 -9.6633 13.0864 12.5376 -0.0000 -0.0000
2.8347 39.6373 -9.8843 -1.1723 -4.4462 -3.6497 10.1274 6.6290 4.3760 24.8317 28.2010 -6.9847 -2.6219 3.7132 24.8749 -1.9289 -24.2466 -27.5419 -97.9475 0.0000 18.8788 -0.0906 -1.7963 -2.8875 32.8623 0.0000 24.3270 15.5648 -13.9186 -9.7216 -9.7039 48.3259 71.5652 29.5448 -0.0000 9.5715 -2.0322 13.5881 8.5885 33.1476 -0.0000 -26.2537 0.0658 4.4238 2.3565 8.1445 -0.0000 -0.0000 -12.7300 25.1326 -5.6673 12.4728 -0.0000 -0.0000 1.6477 -8.5791 1.3752 5.6938 -0.0000 -0.0000 -6.6401 -9.7264 13.0250 12.5585 -0.0000 -0.0000
2.8069 39.6368 -9.8637 -1.1573 -4.3837 -3.6344 9.9113 6.7236 4.1062 24.8158 28.2806 -7.1589 -3.0204 3.5657 24.7905 -3.8028 -22.8253 -28.3824 -98.7478 0.0000 18.4442 -0.0931 -1.9263 -2.7679 32.8623 0.0000 24.3270 15.5157 -13.9120 -9.7256 -9.7467 48.2633 71.8527 29.6098 0.0000 9.5598 -2.0527 13.6020 8.6654 33.1476 -0.0000 -26.2537 0.0536 4.4079 2.3840 8.1913 -0.0000 -0.0000 -12.7406 25.1096 -5.6975 12.4952 -0.0000 -0.0000 1.6651 -8.5417 1.4035 5.7281 -0.0000 -0.0000 -6.7202 -9.8230 13.0099 12.5826 -0.0000 -0.0000
2.7842 39.6360 -9.8426 -1.1369 -4.3328 -3.6183 9.6907 6.7882 3.8561 24.8307 28.4110 -7.3780 -3.3489 3.5068 24.6721 -5.7555 -21.4068 -29.2052 -99.4861 0.0000 18.1817 -0.0888 -2.0744 -2.4528 32.8623 0.0000 24.3270 15.4167 -13.8853 -9.7685 -9.7158 48.3265 72.0934 29.6619 0.0000 9.4368 -2.0524 13.6533 8.6326 33.1476 -0.0000 -26.2537 0.0654 4.3331 2.4027 8.1839 -0.0000 -0.0000 -12.7563 25.1280 -5.7789 12.3624 -0.0000 -0.0000 1.6804 -8.5715 1.4215 5.7511 -0.0000 -0.0000 -6.7897 -9.8319 12.9692 12.5769 -0.0000 -0.0000
2.7591 39.6354 -9.8169 -1.1308 -4.2949 -3.6166 9.4796 6.8750 3.6124 24.8383 28.5277 -7.5714 -3.7155 3.4152 24.5415 -7.6920 -19.9067 -29.9979 -100.2808 0.0000 17.7318 -0.0714 -1.7656 -2.3159 32.8623 0.0000 24.3270 15.4707 -13.8982 -9.7566 -9.8114 48.4033 72.3001 29.7137 0.0000 9.3986 -2.0246 13.6193 8.5381 33.1476 -0.0000 -26.2537 0.0855 4.3075 2.4359 8.2054 -0.0000 -0.0000 -12.7767 25.1278 -5.7999 12.3537 -0.0000 -0.0000 1.7320 -8.5787 1.4576 5.7429 -0.0000 -0.0000 -6.8450 -9.8630 12.9583 12.6332 -0.0000 -0.0000
